<svg xmlns="http://www.w3.org/2000/svg" viewBox="0 0 496 456" fill="#FFE119" aria-hidden="true">
  <path d="M0.0,176.0Q7.0,176.0 7.5,180.0Q8.0,184.0 23.5,184.0Q39.0,184.0 39.5,188.0Q40.0,192.0 47.5,192.0Q55.0,192.0 55.0,195.5Q55.0,199.0 59.0,199.5Q63.0,200.0 63.5,204.0Q64.0,208.0 71.5,208.0Q79.0,208.0 79.0,211.5Q79.0,215.0 83.0,215.5Q87.0,216.0 87.0,219.5Q87.0,223.0 91.0,223.5Q95.0,224.0 95.0,227.5Q95.0,231.0 99.0,231.5Q103.0,232.0 103.5,236.0Q104.0,240.0 107.5,240.0Q111.0,240.0 111.0,247.5Q111.0,255.0 115.0,255.5Q119.0,256.0 119.0,263.5Q119.0,271.0 123.0,271.5Q127.0,272.0 127.0,279.5Q127.0,287.0 131.0,287.5Q135.0,288.0 135.0,307.5Q135.0,327.0 139.0,327.5Q143.0,328.0 143.0,331.5Q143.0,335.0 139.0,335.5Q135.0,336.0 135.0,359.5Q135.0,383.0 131.0,383.5Q127.0,384.0 127.0,391.5Q127.0,399.0 123.0,399.5Q119.0,400.0 119.0,407.5Q119.0,415.0 115.5,415.0Q112.0,415.0 111.5,419.0Q111.0,423.0 107.5,423.0Q104.0,423.0 103.5,427.0Q103.0,431.0 99.0,431.5Q95.0,432.0 95.0,439.5Q95.0,447.0 91.5,447.0Q88.0,447.0 88.0,443.5Q88.0,440.0 84.0,439.5Q80.0,439.0 80.0,427.5Q80.0,416.0 76.0,415.5Q72.0,415.0 72.0,403.5Q72.0,392.0 68.0,391.5Q64.0,391.0 64.0,379.5Q64.0,368.0 60.0,367.5Q56.0,367.0 56.0,355.5Q56.0,344.0 52.0,343.5Q48.0,343.0 48.0,331.5Q48.0,320.0 44.0,319.5Q40.0,319.0 40.0,307.5Q40.0,296.0 36.0,295.5Q32.0,295.0 32.0,283.5Q32.0,272.0 28.0,271.5Q24.0,271.0 24.0,259.5Q24.0,248.0 20.0,247.5Q16.0,247.0 16.0,235.5Q16.0,224.0 12.0,223.5Q8.0,223.0 8.0,211.5Q8.0,200.0 4.0,199.5Q0.0,199.0 0.0,187.5Z"/>
  <path d="M224.0,0.0Q239.0,0.0 239.0,35.5Q239.0,71.0 235.0,71.5Q231.0,72.0 231.0,83.5Q231.0,95.0 227.5,95.0Q224.0,95.0 223.5,99.0Q223.0,103.0 219.0,103.5Q215.0,104.0 215.0,111.5Q215.0,119.0 211.5,119.0Q208.0,119.0 207.5,123.0Q207.0,127.0 203.5,127.0Q200.0,127.0 199.5,131.0Q199.0,135.0 195.5,135.0Q192.0,135.0 191.5,139.0Q191.0,143.0 187.5,143.0Q184.0,143.0 183.5,147.0Q183.0,151.0 179.0,151.5Q175.0,152.0 175.0,155.5Q175.0,159.0 167.5,159.0Q160.0,159.0 159.5,163.0Q159.0,167.0 151.5,167.0Q144.0,167.0 143.5,171.0Q143.0,175.0 127.5,175.0Q112.0,175.0 111.5,179.0Q111.0,183.0 79.5,183.0Q48.0,183.0 47.5,179.0Q47.0,175.0 35.5,175.0Q24.0,175.0 23.5,171.0Q23.0,167.0 15.5,167.0Q8.0,167.0 8.0,159.5Q8.0,152.0 15.5,152.0Q23.0,152.0 23.5,148.0Q24.0,144.0 28.0,143.5Q32.0,143.0 32.0,139.5Q32.0,136.0 39.5,136.0Q47.0,136.0 47.5,132.0Q48.0,128.0 52.0,127.5Q56.0,127.0 56.0,123.5Q56.0,120.0 63.5,120.0Q71.0,120.0 71.5,116.0Q72.0,112.0 75.5,112.0Q79.0,112.0 79.5,108.0Q80.0,104.0 84.0,103.5Q88.0,103.0 88.0,99.5Q88.0,96.0 95.5,96.0Q103.0,96.0 103.5,92.0Q104.0,88.0 108.0,87.5Q112.0,87.0 112.0,83.5Q112.0,80.0 119.5,80.0Q127.0,80.0 127.5,76.0Q128.0,72.0 132.0,71.5Q136.0,71.0 136.0,67.5Q136.0,64.0 143.5,64.0Q151.0,64.0 151.5,60.0Q152.0,56.0 155.5,56.0Q159.0,56.0 159.5,52.0Q160.0,48.0 164.0,47.5Q168.0,47.0 168.0,43.5Q168.0,40.0 175.5,40.0Q183.0,40.0 183.5,36.0Q184.0,32.0 188.0,31.5Q192.0,31.0 192.0,27.5Q192.0,24.0 199.5,24.0Q207.0,24.0 207.5,20.0Q208.0,16.0 211.5,16.0Q215.0,16.0 215.5,12.0Q216.0,8.0 220.0,7.5Q224.0,7.0 224.0,3.5Z"/>
  <path d="M256.0,0.0Q271.0,0.0 271.0,3.5Q271.0,7.0 275.0,7.5Q279.0,8.0 279.0,11.5Q279.0,15.0 283.0,15.5Q287.0,16.0 287.5,20.0Q288.0,24.0 295.5,24.0Q303.0,24.0 303.0,27.5Q303.0,31.0 307.0,31.5Q311.0,32.0 311.5,36.0Q312.0,40.0 319.5,40.0Q327.0,40.0 327.0,43.5Q327.0,47.0 331.0,47.5Q335.0,48.0 335.5,52.0Q336.0,56.0 343.5,56.0Q351.0,56.0 351.0,59.5Q351.0,63.0 355.0,63.5Q359.0,64.0 359.0,67.5Q359.0,71.0 363.0,71.5Q367.0,72.0 367.5,76.0Q368.0,80.0 375.5,80.0Q383.0,80.0 383.0,83.5Q383.0,87.0 387.0,87.5Q391.0,88.0 391.5,92.0Q392.0,96.0 399.5,96.0Q407.0,96.0 407.0,99.5Q407.0,103.0 411.0,103.5Q415.0,104.0 415.5,108.0Q416.0,112.0 423.5,112.0Q431.0,112.0 431.0,115.5Q431.0,119.0 435.0,119.5Q439.0,120.0 439.0,123.5Q439.0,127.0 443.0,127.5Q447.0,128.0 447.5,132.0Q448.0,136.0 455.5,136.0Q463.0,136.0 463.0,139.5Q463.0,143.0 467.0,143.5Q471.0,144.0 471.5,148.0Q472.0,152.0 479.5,152.0Q487.0,152.0 487.0,155.5Q487.0,159.0 491.0,159.5Q495.0,160.0 495.0,163.5Q495.0,167.0 483.5,167.0Q472.0,167.0 471.5,171.0Q471.0,175.0 459.5,175.0Q448.0,175.0 447.5,179.0Q447.0,183.0 415.5,183.0Q384.0,183.0 383.5,179.0Q383.0,175.0 367.5,175.0Q352.0,175.0 351.5,171.0Q351.0,167.0 343.5,167.0Q336.0,167.0 335.5,163.0Q335.0,159.0 327.5,159.0Q320.0,159.0 320.0,155.5Q320.0,152.0 316.0,151.5Q312.0,151.0 312.0,147.5Q312.0,144.0 308.0,143.5Q304.0,143.0 304.0,139.5Q304.0,136.0 300.0,135.5Q296.0,135.0 296.0,131.5Q296.0,128.0 292.0,127.5Q288.0,127.0 287.5,123.0Q287.0,119.0 283.5,119.0Q280.0,119.0 280.0,111.5Q280.0,104.0 276.0,103.5Q272.0,103.0 272.0,95.5Q272.0,88.0 268.0,87.5Q264.0,87.0 264.0,79.5Q264.0,72.0 260.0,71.5Q256.0,71.0 256.0,35.5Z"/>
  <path d="M488.0,176.0Q495.0,176.0 495.0,187.5Q495.0,199.0 491.0,199.5Q487.0,200.0 487.0,211.5Q487.0,223.0 483.0,223.5Q479.0,224.0 479.0,235.5Q479.0,247.0 475.0,247.5Q471.0,248.0 471.0,259.5Q471.0,271.0 467.0,271.5Q463.0,272.0 463.0,283.5Q463.0,295.0 459.0,295.5Q455.0,296.0 455.0,307.5Q455.0,319.0 451.0,319.5Q447.0,320.0 447.0,331.5Q447.0,343.0 443.0,343.5Q439.0,344.0 439.0,355.5Q439.0,367.0 435.0,367.5Q431.0,368.0 431.0,379.5Q431.0,391.0 427.0,391.5Q423.0,392.0 423.0,403.5Q423.0,415.0 419.0,415.5Q415.0,416.0 415.0,427.5Q415.0,439.0 411.5,439.0Q408.0,439.0 407.5,443.0Q407.0,447.0 403.5,447.0Q400.0,447.0 400.0,439.5Q400.0,432.0 396.0,431.5Q392.0,431.0 392.0,427.5Q392.0,424.0 388.0,423.5Q384.0,423.0 383.5,419.0Q383.0,415.0 379.5,415.0Q376.0,415.0 376.0,407.5Q376.0,400.0 372.0,399.5Q368.0,399.0 368.0,391.5Q368.0,384.0 364.0,383.5Q360.0,383.0 360.0,359.5Q360.0,336.0 356.0,335.5Q352.0,335.0 352.0,327.5Q352.0,320.0 356.0,319.5Q360.0,319.0 360.0,299.5Q360.0,280.0 364.0,279.5Q368.0,279.0 368.0,271.5Q368.0,264.0 372.0,263.5Q376.0,263.0 376.0,255.5Q376.0,248.0 379.5,248.0Q383.0,248.0 383.5,244.0Q384.0,240.0 387.5,240.0Q391.0,240.0 391.5,236.0Q392.0,232.0 395.5,232.0Q399.0,232.0 399.5,228.0Q400.0,224.0 403.5,224.0Q407.0,224.0 407.5,220.0Q408.0,216.0 412.0,215.5Q416.0,215.0 416.0,211.5Q416.0,208.0 423.5,208.0Q431.0,208.0 431.5,204.0Q432.0,200.0 436.0,199.5Q440.0,199.0 440.0,195.5Q440.0,192.0 451.5,192.0Q463.0,192.0 463.5,188.0Q464.0,184.0 475.5,184.0Q487.0,184.0 487.5,180.0Z"/>
  <path d="M208.0,368.0Q295.0,368.0 295.5,372.0Q296.0,376.0 303.5,376.0Q311.0,376.0 311.5,380.0Q312.0,384.0 319.5,384.0Q327.0,384.0 327.5,388.0Q328.0,392.0 335.5,392.0Q343.0,392.0 343.0,395.5Q343.0,399.0 347.0,399.5Q351.0,400.0 351.0,403.5Q351.0,407.0 355.0,407.5Q359.0,408.0 359.0,411.5Q359.0,415.0 363.0,415.5Q367.0,416.0 367.0,419.5Q367.0,423.0 371.0,423.5Q375.0,424.0 375.5,428.0Q376.0,432.0 379.5,432.0Q383.0,432.0 383.0,439.5Q383.0,447.0 387.0,447.5Q391.0,448.0 391.0,451.5Q391.0,455.0 247.5,455.0Q104.0,455.0 104.0,451.5Q104.0,448.0 108.0,447.5Q112.0,447.0 112.0,439.5Q112.0,432.0 115.5,432.0Q119.0,432.0 119.5,428.0Q120.0,424.0 123.5,424.0Q127.0,424.0 127.5,420.0Q128.0,416.0 131.5,416.0Q135.0,416.0 135.5,412.0Q136.0,408.0 139.5,408.0Q143.0,408.0 143.5,404.0Q144.0,400.0 148.0,399.5Q152.0,399.0 152.0,395.5Q152.0,392.0 159.5,392.0Q167.0,392.0 167.5,388.0Q168.0,384.0 175.5,384.0Q183.0,384.0 183.5,380.0Q184.0,376.0 195.5,376.0Q207.0,376.0 207.5,372.0Z"/>
</svg>
